<?xml version="1.0" encoding="UTF-8"?><svg id="Layer_1" xmlns="http://www.w3.org/2000/svg" viewBox="0 0 14 13.99"><path d="m7.6.03s-.01,0-.02,0c-.11,0-.22-.02-.33-.02-.08,0-.16,0-.24,0,0,0,0,0,0,0,0,0,0,0,0,0,0,0,0,0,0,0-.1,0-.2,0-.31,0-.07,0-.14,0-.22.01h0C2.85.28,0,3.3,0,6.99s3.12,7,6.98,7c1.22,0,2.36-.33,3.36-.88.11-.04.24-.1.38-.19,1.97-1.24,3.28-3.43,3.28-5.93C14,3.33,11.18.33,7.6.03Zm-.42,12.97c-3.32,0-6.01-2.7-6.01-6.03,0-2.36,1.35-4.4,3.31-5.39-.47,1.27-.63,2.73-.51,4.19.28,3.31,1.94,5.51,4.53,7.08-.42.1-.87.15-1.32.15Z"/></svg>